<svg width="45" height="45" viewBox="0 0 45 45" fill="none" xmlns="http://www.w3.org/2000/svg">
<rect x="0.970581" y="1" width="43" height="43" rx="15.5" stroke="#D85816"/>
<path d="M26.4706 28.5C27.001 28.5 27.5097 28.7107 27.8848 29.0858C28.2599 29.4609 28.4706 29.9696 28.4706 30.5C28.4706 31.0304 28.2599 31.5391 27.8848 31.9142C27.5097 32.2893 27.001 32.5 26.4706 32.5C25.9401 32.5 25.4314 32.2893 25.0564 31.9142C24.6813 31.5391 24.4706 31.0304 24.4706 30.5C24.4706 29.9696 24.6813 29.4609 25.0564 29.0858C25.4314 28.7107 25.9401 28.5 26.4706 28.5ZM26.4706 29.5C26.2054 29.5 25.951 29.6054 25.7635 29.7929C25.5759 29.9804 25.4706 30.2348 25.4706 30.5C25.4706 30.7652 25.5759 31.0196 25.7635 31.2071C25.951 31.3946 26.2054 31.5 26.4706 31.5C26.7358 31.5 26.9902 31.3946 27.1777 31.2071C27.3652 31.0196 27.4706 30.7652 27.4706 30.5C27.4706 30.2348 27.3652 29.9804 27.1777 29.7929C26.9902 29.6054 26.7358 29.5 26.4706 29.5ZM17.4706 28.5C18.001 28.5 18.5097 28.7107 18.8848 29.0858C19.2599 29.4609 19.4706 29.9696 19.4706 30.5C19.4706 31.0304 19.2599 31.5391 18.8848 31.9142C18.5097 32.2893 18.001 32.5 17.4706 32.5C16.9401 32.5 16.4314 32.2893 16.0564 31.9142C15.6813 31.5391 15.4706 31.0304 15.4706 30.5C15.4706 29.9696 15.6813 29.4609 16.0564 29.0858C16.4314 28.7107 16.9401 28.5 17.4706 28.5ZM17.4706 29.5C17.2054 29.5 16.951 29.6054 16.7635 29.7929C16.5759 29.9804 16.4706 30.2348 16.4706 30.5C16.4706 30.7652 16.5759 31.0196 16.7635 31.2071C16.951 31.3946 17.2054 31.5 17.4706 31.5C17.7358 31.5 17.9902 31.3946 18.1777 31.2071C18.3652 31.0196 18.4706 30.7652 18.4706 30.5C18.4706 30.2348 18.3652 29.9804 18.1777 29.7929C17.9902 29.6054 17.7358 29.5 17.4706 29.5ZM28.4706 16.5H14.7406L17.2906 22.5H25.4706C25.8006 22.5 26.0906 22.34 26.2706 22.1L29.2706 18.1C29.4006 17.93 29.4706 17.72 29.4706 17.5C29.4706 17.2348 29.3652 16.9804 29.1777 16.7929C28.9902 16.6054 28.7358 16.5 28.4706 16.5ZM25.4706 23.5H17.3406L16.5706 25.06L16.4706 25.5C16.4706 25.7652 16.5759 26.0196 16.7635 26.2071C16.951 26.3946 17.2054 26.5 17.4706 26.5H28.4706V27.5H17.4706C16.9401 27.5 16.4314 27.2893 16.0564 26.9142C15.6813 26.5391 15.4706 26.0304 15.4706 25.5C15.4703 25.1607 15.5563 24.8269 15.7206 24.53L16.4406 23.06L12.8106 14.5H11.4706V13.5H13.4706L14.3206 15.5H28.4706C29.001 15.5 29.5097 15.7107 29.8848 16.0858C30.2599 16.4609 30.4706 16.9696 30.4706 17.5C30.4706 18 30.3006 18.42 30.0206 18.76L27.1106 22.65C26.7506 23.16 26.1506 23.5 25.4706 23.5Z" fill="#D85816"/>
</svg>
