<svg width="15" height="15" viewBox="0 0 15 15" fill="none" xmlns="http://www.w3.org/2000/svg">
<path d="M11.8421 11.8421C12.2609 11.8421 12.6625 12.0085 12.9586 12.3046C13.2547 12.6007 13.4211 13.0023 13.4211 13.4211C13.4211 13.8398 13.2547 14.2414 12.9586 14.5375C12.6625 14.8336 12.2609 15 11.8421 15C11.4233 15 11.0217 14.8336 10.7256 14.5375C10.4295 14.2414 10.2632 13.8398 10.2632 13.4211C10.2632 13.0023 10.4295 12.6007 10.7256 12.3046C11.0217 12.0085 11.4233 11.8421 11.8421 11.8421ZM11.8421 12.6316C11.6327 12.6316 11.4319 12.7148 11.2839 12.8628C11.1358 13.0109 11.0526 13.2117 11.0526 13.4211C11.0526 13.6304 11.1358 13.8312 11.2839 13.9793C11.4319 14.1274 11.6327 14.2105 11.8421 14.2105C12.0515 14.2105 12.2523 14.1274 12.4003 13.9793C12.5484 13.8312 12.6316 13.6304 12.6316 13.4211C12.6316 13.2117 12.5484 13.0109 12.4003 12.8628C12.2523 12.7148 12.0515 12.6316 11.8421 12.6316ZM4.73684 11.8421C5.15561 11.8421 5.55722 12.0085 5.85333 12.3046C6.14944 12.6007 6.31579 13.0023 6.31579 13.4211C6.31579 13.8398 6.14944 14.2414 5.85333 14.5375C5.55722 14.8336 5.15561 15 4.73684 15C4.31808 15 3.91647 14.8336 3.62036 14.5375C3.32425 14.2414 3.15789 13.8398 3.15789 13.4211C3.15789 13.0023 3.32425 12.6007 3.62036 12.3046C3.91647 12.0085 4.31808 11.8421 4.73684 11.8421ZM4.73684 12.6316C4.52746 12.6316 4.32666 12.7148 4.1786 12.8628C4.03055 13.0109 3.94737 13.2117 3.94737 13.4211C3.94737 13.6304 4.03055 13.8312 4.1786 13.9793C4.32666 14.1274 4.52746 14.2105 4.73684 14.2105C4.94622 14.2105 5.14703 14.1274 5.29508 13.9793C5.44314 13.8312 5.52632 13.6304 5.52632 13.4211C5.52632 13.2117 5.44314 13.0109 5.29508 12.8628C5.14703 12.7148 4.94622 12.6316 4.73684 12.6316ZM13.4211 2.36842H2.58158L4.59474 7.10526H11.0526C11.3132 7.10526 11.5421 6.97895 11.6842 6.78947L14.0526 3.63158C14.1553 3.49737 14.2105 3.33158 14.2105 3.15789C14.2105 2.94851 14.1274 2.74771 13.9793 2.59965C13.8312 2.4516 13.6304 2.36842 13.4211 2.36842ZM11.0526 7.89474H4.63421L4.02632 9.12632L3.94737 9.47368C3.94737 9.68307 4.03055 9.88387 4.1786 10.0319C4.32666 10.18 4.52746 10.2632 4.73684 10.2632H13.4211V11.0526H4.73684C4.31808 11.0526 3.91647 10.8863 3.62036 10.5902C3.32425 10.2941 3.15789 9.89245 3.15789 9.47368C3.15766 9.20581 3.22558 8.94228 3.35526 8.7079L3.92368 7.54737L1.05789 0.789474H0V0H1.57895L2.25 1.57895H13.4211C13.8398 1.57895 14.2414 1.7453 14.5375 2.04141C14.8336 2.33752 15 2.73913 15 3.15789C15 3.55263 14.8658 3.88421 14.6447 4.15263L12.3474 7.22368C12.0632 7.62632 11.5895 7.89474 11.0526 7.89474Z" fill="#D85816"/>
</svg>
