<svg width="10" height="7" viewBox="0 0 10 7" fill="none" xmlns="http://www.w3.org/2000/svg">
<path d="M9.7726 0.969348C9.63195 0.828745 9.44122 0.749758 9.24235 0.749758C9.04348 0.749758 8.85274 0.828745 8.7121 0.969348L4.9996 4.68185L1.2871 0.969348C1.14565 0.832729 0.956194 0.757133 0.759547 0.758842C0.562899 0.760551 0.37479 0.839427 0.235734 0.978483C0.0966773 1.11754 0.0178017 1.30565 0.0160927 1.5023C0.0143837 1.69894 0.0899796 1.8884 0.226598 2.02985L4.46935 6.2726C4.60999 6.4132 4.80072 6.49219 4.9996 6.49219C5.19847 6.49219 5.3892 6.4132 5.52985 6.2726L9.7726 2.02985C9.9132 1.8892 9.99219 1.69847 9.99219 1.4996C9.99219 1.30072 9.9132 1.10999 9.7726 0.969348Z" fill="#D85816"/>
</svg>
