<svg width="30" height="24" viewBox="0 0 30 24" fill="none" xmlns="http://www.w3.org/2000/svg">
<path d="M18.0962 10.7108C18.1822 11.1651 18.2435 11.6194 18.2435 12.2087C18.2435 17.3534 14.7933 21 9.59961 21C4.62692 21 0.599609 16.9727 0.599609 12C0.599609 7.02727 4.62692 3 9.59961 3C12.0307 3 14.0566 3.88402 15.6283 5.35744L13.1848 7.70259C12.5218 7.06411 11.3554 6.31514 9.59961 6.31514C6.53005 6.31514 4.02523 8.85675 4.02523 12C4.02523 15.1432 6.53005 17.6849 9.59961 17.6849C13.1603 17.6849 14.4987 15.1187 14.7073 13.8049H9.59961V10.7107H18.0962V10.7108ZM26.7871 11.0125V8.4H24.1621V11.0125H21.5496V13.6375H24.1621V16.25H26.7871V13.6375H29.3996V11.0125H26.7871Z" fill="#D85816"/>
</svg>
