<svg width="16" height="16" viewBox="0 0 16 16" fill="none" xmlns="http://www.w3.org/2000/svg">
<path d="M3.66665 4.66668C3.40143 4.66668 3.14708 4.56132 2.95954 4.37378C2.772 4.18625 2.66665 3.93189 2.66665 3.66668C2.66665 3.40146 2.772 3.14711 2.95954 2.95957C3.14708 2.77203 3.40143 2.66668 3.66665 2.66668C3.93186 2.66668 4.18622 2.77203 4.37375 2.95957C4.56129 3.14711 4.66665 3.40146 4.66665 3.66668C4.66665 3.93189 4.56129 4.18625 4.37375 4.37378C4.18622 4.56132 3.93186 4.66668 3.66665 4.66668ZM14.2733 7.72001L8.27331 1.72001C8.03331 1.48001 7.69998 1.33334 7.33331 1.33334H2.66665C1.92665 1.33334 1.33331 1.92668 1.33331 2.66668V7.33334C1.33331 7.70001 1.47998 8.03334 1.72665 8.27334L7.71998 14.2733C7.96665 14.5133 8.29998 14.6667 8.66665 14.6667C9.03331 14.6667 9.36665 14.5133 9.60665 14.2733L14.2733 9.60668C14.52 9.36668 14.6666 9.03334 14.6666 8.66668C14.6666 8.29334 14.5133 7.96001 14.2733 7.72001Z" fill="#378204"/>
</svg>
