<svg width="45" height="45" viewBox="0 0 45 45" fill="none" xmlns="http://www.w3.org/2000/svg">
<rect x="0.970581" y="1" width="43" height="43" rx="15.5" stroke="#D85816"/>
<path d="M14.4706 28.5C14.4706 27.4391 14.892 26.4217 15.6422 25.6716C16.3923 24.9214 17.4097 24.5 18.4706 24.5H26.4706C27.5314 24.5 28.5489 24.9214 29.299 25.6716C30.0492 26.4217 30.4706 27.4391 30.4706 28.5C30.4706 29.0304 30.2599 29.5391 29.8848 29.9142C29.5097 30.2893 29.001 30.5 28.4706 30.5H16.4706C15.9401 30.5 15.4314 30.2893 15.0564 29.9142C14.6813 29.5391 14.4706 29.0304 14.4706 28.5Z" stroke="#D85816" stroke-linejoin="round"/>
<path d="M22.4706 20.5C24.1274 20.5 25.4706 19.1569 25.4706 17.5C25.4706 15.8431 24.1274 14.5 22.4706 14.5C20.8137 14.5 19.4706 15.8431 19.4706 17.5C19.4706 19.1569 20.8137 20.5 22.4706 20.5Z" stroke="#D85816"/>
</svg>
