<svg width="14" height="15" viewBox="0 0 14 15" fill="none" xmlns="http://www.w3.org/2000/svg">
<path d="M6.99998 0.333374C10.682 0.333374 13.6666 3.31804 13.6666 7.00004C13.6666 10.682 10.682 13.6667 6.99998 13.6667C3.31798 13.6667 0.333313 10.682 0.333313 7.00004C0.333313 3.31804 3.31798 0.333374 6.99998 0.333374ZM6.99998 1.66671C5.58549 1.66671 4.22894 2.22861 3.22874 3.2288C2.22855 4.229 1.66665 5.58555 1.66665 7.00004C1.66665 8.41453 2.22855 9.77108 3.22874 10.7713C4.22894 11.7715 5.58549 12.3334 6.99998 12.3334C8.41447 12.3334 9.77102 11.7715 10.7712 10.7713C11.7714 9.77108 12.3333 8.41453 12.3333 7.00004C12.3333 5.58555 11.7714 4.229 10.7712 3.2288C9.77102 2.22861 8.41447 1.66671 6.99998 1.66671ZM6.99998 9.66671C7.17679 9.66671 7.34636 9.73694 7.47138 9.86197C7.59641 9.98699 7.66665 10.1566 7.66665 10.3334C7.66665 10.5102 7.59641 10.6798 7.47138 10.8048C7.34636 10.9298 7.17679 11 6.99998 11C6.82317 11 6.6536 10.9298 6.52857 10.8048C6.40355 10.6798 6.33331 10.5102 6.33331 10.3334C6.33331 10.1566 6.40355 9.98699 6.52857 9.86197C6.6536 9.73694 6.82317 9.66671 6.99998 9.66671ZM6.99998 3.33337C7.5615 3.33339 8.10549 3.52894 8.5385 3.88644C8.97151 4.24394 9.26652 4.74106 9.37285 5.29243C9.47918 5.84379 9.39019 6.41497 9.12117 6.90785C8.85215 7.40073 8.41989 7.78455 7.89865 7.99337C7.82144 8.02176 7.75185 8.06762 7.69531 8.12737C7.66598 8.16071 7.66131 8.20337 7.66198 8.24737L7.66665 8.33337C7.66646 8.50329 7.60139 8.66673 7.48475 8.79029C7.3681 8.91384 7.20868 8.9882 7.03905 8.99815C6.86942 9.00811 6.70239 8.95292 6.57209 8.84386C6.44179 8.7348 6.35805 8.5801 6.33798 8.41137L6.33331 8.33337V8.16671C6.33331 7.39804 6.95331 6.93671 7.40265 6.75604C7.58552 6.68301 7.74505 6.56155 7.8641 6.4047C7.98315 6.24784 8.05723 6.06152 8.07838 5.86574C8.09952 5.66997 8.06694 5.47213 7.98413 5.29347C7.90132 5.11481 7.7714 4.96208 7.60834 4.85169C7.44527 4.7413 7.25522 4.67741 7.05858 4.66689C6.86195 4.65636 6.66616 4.6996 6.49224 4.79195C6.31833 4.88431 6.17285 5.0223 6.07144 5.19109C5.97003 5.35989 5.91652 5.55312 5.91665 5.75004C5.91665 5.92685 5.84641 6.09642 5.72138 6.22144C5.59636 6.34647 5.42679 6.41671 5.24998 6.41671C5.07317 6.41671 4.9036 6.34647 4.77857 6.22144C4.65355 6.09642 4.58331 5.92685 4.58331 5.75004C4.58331 5.1091 4.83792 4.49441 5.29114 4.0412C5.74435 3.58799 6.35904 3.33337 6.99998 3.33337Z" fill="#6A6A6A"/>
</svg>
