<svg width="24" height="25" viewBox="0 0 24 25" fill="none" xmlns="http://www.w3.org/2000/svg">
<path d="M12 16.6018L8.37 18.7938C8.26334 18.8464 8.16434 18.8678 8.073 18.8578C7.98234 18.8471 7.894 18.8158 7.808 18.7638C7.72134 18.7104 7.656 18.6351 7.612 18.5378C7.568 18.4404 7.564 18.3341 7.6 18.2188L8.566 14.1088L5.371 11.3388C5.281 11.2654 5.22167 11.1778 5.193 11.0758C5.16433 10.9738 5.17067 10.8761 5.212 10.7828C5.25334 10.6894 5.30834 10.6128 5.377 10.5528C5.44634 10.4948 5.53967 10.4554 5.657 10.4348L9.873 10.0668L11.517 6.17477C11.5623 6.06477 11.6277 5.98544 11.713 5.93677C11.7983 5.8881 11.894 5.86377 12 5.86377C12.106 5.86377 12.202 5.8881 12.288 5.93677C12.374 5.98544 12.439 6.06477 12.483 6.17477L14.127 10.0668L18.342 10.4348C18.46 10.4548 18.5537 10.4944 18.623 10.5538C18.6923 10.6124 18.7477 10.6888 18.789 10.7828C18.8297 10.8761 18.8357 10.9738 18.807 11.0758C18.7783 11.1778 18.719 11.2654 18.629 11.3388L15.434 14.1088L16.4 18.2188C16.4373 18.3328 16.4337 18.4388 16.389 18.5368C16.3443 18.6348 16.2787 18.7101 16.192 18.7628C16.1067 18.8161 16.0183 18.8478 15.927 18.8578C15.8363 18.8678 15.7377 18.8464 15.631 18.7938L12 16.6018Z" fill="#378204"/>
</svg>
