<svg width="48" height="48" viewBox="0 0 48 48" fill="none" xmlns="http://www.w3.org/2000/svg">
<path d="M10 34C10 35.0609 10.4214 36.0783 11.1716 36.8284C11.9217 37.5786 12.9391 38 14 38C15.0609 38 16.0783 37.5786 16.8284 36.8284C17.5786 36.0783 18 35.0609 18 34C18 32.9391 17.5786 31.9217 16.8284 31.1716C16.0783 30.4214 15.0609 30 14 30C12.9391 30 11.9217 30.4214 11.1716 31.1716C10.4214 31.9217 10 32.9391 10 34ZM30 34C30 35.0609 30.4214 36.0783 31.1716 36.8284C31.9217 37.5786 32.9391 38 34 38C35.0609 38 36.0783 37.5786 36.8284 36.8284C37.5786 36.0783 38 35.0609 38 34C38 32.9391 37.5786 31.9217 36.8284 31.1716C36.0783 30.4214 35.0609 30 34 30C32.9391 30 31.9217 30.4214 31.1716 31.1716C30.4214 31.9217 30 32.9391 30 34Z" stroke="#D85816" stroke-width="2" stroke-linecap="round" stroke-linejoin="round"/>
<path d="M10 34H6V12C6 11.4696 6.21071 10.9609 6.58579 10.5858C6.96086 10.2107 7.46957 10 8 10H26V22H16M16 22L20 26M16 22L20 18M18 34H30M26 12H36L42 22V34H38" stroke="#D85816" stroke-width="2" stroke-linecap="round" stroke-linejoin="round"/>
</svg>
